<?xml version="1.0" standalone="no"?><!DOCTYPE svg PUBLIC "-//W3C//DTD SVG 1.1//EN" "http://www.w3.org/Graphics/SVG/1.1/DTD/svg11.dtd"><svg class="icon" width="20px" height="20.00px" viewBox="0 0 1024 1024" version="1.1" xmlns="http://www.w3.org/2000/svg"><path d="M757.5552 481.6896c118.6816 0 215.2448-96.5632 215.2448-215.2448C972.8 147.7632 876.2368 51.2 757.5552 51.2c-118.6816 0-215.2448 96.5632-215.2448 215.2448 0 1.1264 0 2.1504 0.1024 3.2768v0.8192l-0.1024 211.1488h215.2448z m0-378.1632c89.8048 0 162.9184 73.1136 162.9184 162.9184s-73.1136 162.9184-162.9184 162.9184H594.6368l0.1024-159.4368-0.1024-3.584c0-89.8048 73.1136-162.816 162.9184-162.816zM481.6896 269.7216c0-1.1264 0.1024-2.1504 0.1024-3.2768C481.6896 147.7632 385.1264 51.2 266.4448 51.2S51.2 147.7632 51.2 266.4448c0 118.6816 96.5632 215.2448 215.2448 215.2448h215.2448l-0.1024-210.8416 0.1024-1.1264z m-52.3264 159.6416H266.4448c-89.8048 0-162.9184-73.1136-162.9184-162.9184s73.1136-162.9184 162.9184-162.9184c89.8048 0 162.9184 73.1136 162.9184 162.816l-0.1024 3.9936 0.1024 159.0272zM266.4448 541.0816C147.7632 541.0816 51.2 637.6448 51.2 756.3264c0 118.6816 96.5632 215.2448 215.2448 215.2448s215.2448-96.5632 215.2448-215.2448c0-1.1264 0-2.2528-0.1024-3.3792v-0.6144l0.1024-211.1488H266.4448z m0 378.1632c-89.8048 0-162.9184-73.1136-162.9184-162.9184 0-89.8048 73.1136-162.9184 162.9184-162.9184h162.9184l-0.1024 159.5392 0.1024 3.4816c0 89.8048-73.1136 162.816-162.9184 162.816zM757.5552 542.3104H542.3104l0.1024 210.7392v1.024c0 1.1264-0.1024 2.3552-0.1024 3.4816 0 118.6816 96.5632 215.2448 215.2448 215.2448S972.8 876.2368 972.8 757.5552c0-118.6816-96.5632-215.2448-215.2448-215.2448z m0 378.1632c-89.8048 0-162.9184-73.1136-162.9184-162.816l0.1024-3.9936-0.1024-159.0272h162.9184c89.8048 0 162.9184 73.1136 162.9184 162.9184 0 89.8048-73.1136 162.9184-162.9184 162.9184z" fill="#ffffff" /></svg>