<?xml version="1.0" standalone="no"?><!DOCTYPE svg PUBLIC "-//W3C//DTD SVG 1.1//EN" "http://www.w3.org/Graphics/SVG/1.1/DTD/svg11.dtd"><svg class="icon" width="20px" height="20.00px" viewBox="0 0 1024 1024" version="1.1" xmlns="http://www.w3.org/2000/svg"><path d="M942.526 239.037h-248.55L809.373 123.64c8.877-8.877 8.877-22.193 0-31.07s-22.192-8.876-31.069 0L625.18 245.696c-2.22 2.22-4.439 4.438-4.439 6.658-2.219 4.438-2.219 11.096 0 17.753 2.22 2.22 2.22 4.439 4.439 6.658l153.125 153.125c4.438 4.439 11.096 6.658 15.534 6.658s11.097-2.22 15.535-6.658c8.877-8.877 8.877-22.192 0-31.069L693.975 283.422h250.77c13.316 0 22.193-8.877 22.193-22.193s-11.096-22.192-24.412-22.192zM292.298 749.455C432.108 880.39 605.207 960.28 756.113 960.28c8.877 0 17.754 0 28.85-2.22s19.973-13.314 17.753-24.41c-2.219-11.096-13.315-19.973-24.411-17.754-6.658 0-15.534 2.22-22.192 2.22-139.81 0-301.812-73.235-432.746-197.51-139.81-130.934-219.701-297.374-219.701-454.938 0-86.55 68.795-155.345 155.344-155.345s155.345 68.796 155.345 155.345c0 51.042-26.63 99.864-68.796 128.714l-8.876 6.658c-6.658 4.438-11.097 13.315-8.877 19.972v11.096c6.657 66.577 35.507 128.715 82.11 177.537s108.742 79.892 175.318 86.55l11.096 2.219c8.877 2.219 17.754-2.22 22.192-11.097l6.658-11.096c28.85-44.384 77.672-71.014 130.933-71.014 86.55 0 155.345 68.795 155.345 155.344 0 42.165-17.754 84.33-48.823 113.18-8.877 8.877-8.877 22.192-2.22 31.069 8.878 8.877 22.193 8.877 31.07 2.22 39.945-37.727 64.357-90.988 64.357-146.469 0-110.96-88.769-199.728-199.73-199.728-68.795 0-130.932 33.288-166.44 90.987-55.48-6.657-106.522-33.288-146.467-73.234-39.946-39.945-64.358-93.207-71.015-148.687 53.26-37.726 86.549-97.645 86.549-164.221 0-110.96-88.768-199.729-199.729-199.729S59.281 154.707 59.281 265.668c2.22 166.44 86.55 343.977 233.017 483.787z" fill="#ffffff" /></svg>