<?xml version="1.0" standalone="no"?><!DOCTYPE svg PUBLIC "-//W3C//DTD SVG 1.1//EN" "http://www.w3.org/Graphics/SVG/1.1/DTD/svg11.dtd"><svg class="icon" width="20px" height="18.70px" viewBox="0 0 1095 1024" version="1.1" xmlns="http://www.w3.org/2000/svg"><path d="M597.500674 976.472039h-43.204932a113.666497 113.666497 0 0 1-113.590432-113.590433v-749.240464a113.666497 113.666497 0 0 1 113.590432-113.590432h43.204932a113.666497 113.666497 0 0 1 113.590433 113.590432v749.240464a113.666497 113.666497 0 0 1-113.590433 113.590433z m-43.204932-911.51251a48.833744 48.833744 0 0 0-48.681614 48.681613v749.240464a48.821066 48.821066 0 0 0 48.681614 48.681614h43.204932a48.821066 48.821066 0 0 0 48.681614-48.681614v-749.240464a48.833744 48.833744 0 0 0-48.681614-48.681613z m-303.245886 911.51251H215.958526A113.666497 113.666497 0 0 1 102.368093 862.881606V682.759635a113.666497 113.666497 0 0 1 113.590433-113.590432h35.09133a113.666497 113.666497 0 0 1 113.590432 113.590432v180.121971a113.666497 113.666497 0 0 1-113.590432 113.590433zM215.958526 634.078021a48.821066 48.821066 0 0 0-48.681614 48.681614v180.121971a48.821066 48.821066 0 0 0 48.681614 48.681614h35.09133a48.821066 48.821066 0 0 0 48.681613-48.681614V682.759635a48.821066 48.821066 0 0 0-48.681613-48.681614z m720.082205 342.394018h-35.09133a113.666497 113.666497 0 0 1-113.590432-113.590433V326.978173a113.666497 113.666497 0 0 1 113.590432-113.590432h35.09133a113.666497 113.666497 0 0 1 113.590433 113.590432V863.084447a113.615787 113.615787 0 0 1-113.590433 113.387592z m-35.09133-698.17548a48.821066 48.821066 0 0 0-48.681614 48.681614V863.084447a48.821066 48.821066 0 0 0 48.681614 48.681613h35.09133a48.821066 48.821066 0 0 0 48.681614-48.681613V326.978173a48.821066 48.821066 0 0 0-48.681614-48.681614z m0 0" fill="#ffffff" /></svg>