<svg id="图层_1" data-name="图层 1" xmlns="http://www.w3.org/2000/svg" viewBox="0 0 19.94 19.64"><defs><style>.cls-1{fill:#fff;}</style></defs><title>systemManagement</title><path class="cls-1" d="M10,6.94a2.83,2.83,0,0,1,0,5.65A2.91,2.91,0,0,1,7.16,9.77,2.8,2.8,0,0,1,9.94,6.94h0m0-1.16a4,4,0,1,0,4,4,4,4,0,0,0-4-4m9.64,6.48a8.32,8.32,0,0,0,0-4.65c0-.33-.33-.5-.67-.5s-.5.33-.5.83a12,12,0,0,1,0,4,.91.91,0,0,0,.5.83C19.29,12.76,19.63,12.59,19.63,12.26Zm-.67.5a.67.67,0,0,0,0-1.33h-.17a.72.72,0,0,0-.67.67A1.11,1.11,0,0,0,19,12.76Zm-2,3.66a3.14,3.14,0,0,1-.33-1.33A2.41,2.41,0,0,1,19,12.59a.67.67,0,0,0,0-1.33,3.69,3.69,0,0,0-3.66,3.66,4.42,4.42,0,0,0,.5,2c.17.33.5.33.83.17S17.13,16.74,17,16.41Zm-4.15,3.32a10.11,10.11,0,0,0,4-2.49c.17-.17.33-.67,0-.83-.17-.17-.67-.33-.83,0a9.53,9.53,0,0,1-3.49,2.16.61.61,0,0,0-.35.78l0,0C12.15,19.57,12.48,19.74,12.81,19.74Zm-5-.33a2.42,2.42,0,0,1,4.32,0,.63.63,0,0,0,1.16-.5A3.64,3.64,0,0,0,10,16.74a3.82,3.82,0,0,0-3.32,2.16.61.61,0,0,0,.28.81l0,0C7.33,19.74,7.66,19.74,7.83,19.4ZM3.18,17.24a8.19,8.19,0,0,0,4,2.33c.33.17.67-.17.83-.5s-.17-.67-.33-.83a7.72,7.72,0,0,1-3.49-2.16.75.75,0,0,0-.83,0C3.18,16.25,2.84,17.08,3.18,17.24ZM1,12.76a2.41,2.41,0,0,1,2.33,2.49A2.23,2.23,0,0,1,3,16.58c-.17.33-.17.67.17.83s.67.17.83-.17a4.71,4.71,0,0,0,.67-2A3.69,3.69,0,0,0,1,11.59a.72.72,0,0,0-.67.67A.74.74,0,0,0,1,12.76Zm-.17,0a.76.76,0,0,0,.83-.67A.72.72,0,0,0,1,11.43H.84c-.33.17-.67.33-.67.67C.35,12.42.52,12.76.85,12.76ZM.35,7.61a8.32,8.32,0,0,0,0,4.65c0,.33.33.5.67.5s.5-.33.5-.83a8.29,8.29,0,0,1-.33-2,8.1,8.1,0,0,1,.17-2,.91.91,0,0,0-.5-.83A.53.53,0,0,0,.35,7.61ZM1,7.11c-.5,0-.83.17-.83.67,0,.33.17.67.5.67H.85a.76.76,0,0,0,.83-.67A.72.72,0,0,0,1,7.11ZM3,3.29a2.23,2.23,0,0,1,.33,1.33A2.41,2.41,0,0,1,1,7.11.67.67,0,1,0,1,8.44,3.69,3.69,0,0,0,4.67,4.78a2.9,2.9,0,0,0-.67-2,.61.61,0,0,0-.78-.35l0,0A.58.58,0,0,0,3,3.25ZM7.16.13a9.05,9.05,0,0,0-4,2.49c-.17.17-.33.67,0,.83.17.17.67.33.83,0A9.53,9.53,0,0,1,7.49,1.29.61.61,0,0,0,7.85.51l0,0C7.83.29,7.5.13,7.16.13Zm5,.33A2.36,2.36,0,0,1,10,2,2.23,2.23,0,0,1,7.82.63c-.17-.5-.5-.5-.83-.5-.33.17-.33.67-.33.83A3.64,3.64,0,0,0,10,3.12,3.82,3.82,0,0,0,13.31,1,.61.61,0,0,0,13,.15l0,0C12.65.13,12.31.13,12.15.46ZM17,2.62A10.11,10.11,0,0,0,13,.13c-.5,0-.83.17-.83.5-.17.33,0,.67.33.67A7.72,7.72,0,0,1,16,3.45a.75.75,0,0,0,.83,0A.58.58,0,0,0,17,2.66Zm2,4.49a2.41,2.41,0,0,1-2.33-2.49A3.13,3.13,0,0,1,17,3.29c.17-.33.17-.67-.17-.83s-.67-.17-.83.17a4.42,4.42,0,0,0-.5,2,3.69,3.69,0,0,0,3.66,3.66.72.72,0,0,0,.67-.67A1.41,1.41,0,0,0,19,7.11Zm.17,0a.61.61,0,0,0-.67.55.52.52,0,0,0,0,.12.72.72,0,0,0,.67.67h.17A.72.72,0,0,0,20,7.77C19.63,7.44,19.46,7.11,19.13,7.11Z" transform="translate(-0.02 -0.13)"/></svg>