<?xml version="1.0" standalone="no"?><!DOCTYPE svg PUBLIC "-//W3C//DTD SVG 1.1//EN" "http://www.w3.org/Graphics/SVG/1.1/DTD/svg11.dtd"><svg class="icon" width="20px" height="20.00px" viewBox="0 0 1024 1024" version="1.1" xmlns="http://www.w3.org/2000/svg"><path d="M499.737 682.614h1.312c101.171 0 183.531-73.063 183.531-162.704V243.609c0-89.748-82.36-162.806-184.735-162.806-101.171 0-183.526 73.058-183.526 162.806v276.198c-0.001 89.75 82.247 162.807 183.418 162.807z m-122.28-439.005c0-59.863 54.906-108.472 123.592-108.472 67.486 0 122.28 48.707 122.28 108.472v276.198c0 59.863-54.912 108.473-122.28 108.473h-1.312c-67.486 0-122.28-48.707-122.28-108.473V243.609z" fill="#ffffff" /><path d="M789.581 889.661H528.395v-78.879c182-15.195 297.825-167.536 307.01-342.384 0.784-14.92-13.67-27.162-30.622-27.162-16.84 0-29.537 12.165-30.623 27.162-10.772 148.356-127.954 279.854-273.326 289.407-146.447 9.631-260.695-141.051-271.467-289.407-1.08-14.899-13.67-27.162-30.623-27.162-16.958 0-31.36 12.145-30.623 27.162 7.435 151.675 123.351 327.188 299.028 342.093v79.263H206.075c-16.845 0-30.623 12.129-30.623 27.172 0 14.939 13.67 27.166 30.623 27.166h583.506c16.845 0 30.622-12.129 30.622-27.166-0.112-15.043-13.777-27.265-30.622-27.265z" fill="#ffffff" /></svg>